<svg viewBox="0 0 1024.005 1052.92" xmlns="http://www.w3.org/2000/svg"><path d="M326.426 199.09h366.452c1.38-.024 3.005-.038 4.635-.038 102.005 0 191.425 53.88 241.355 134.73l.7 1.22.28.466c52.91 90.175 84.157 198.6 84.157 314.32 0 .656 0 1.31-.003 1.964v-.1 304.78H843.825c-4.76 22.12-15.467 41.233-30.352 56.184l.004-.004c-20.09 20.13-47.863 32.583-78.546 32.583-.203 0-.407 0-.61-.002H289.514l-.58.002c-30.684 0-58.458-12.453-78.545-32.58l-.002-.003c-14.88-14.946-25.587-34.06-30.213-55.44l-.134-.74H.004V651.557C0 651.018 0 650.38 0 649.742c0-115.685 31.23-224.075 85.718-317.2l-1.608 2.973.28-.465c50.625-82.07 140.037-135.95 242.034-135.96zm366.825 46.546H330.477c-.963-.014-2.1-.022-3.24-.022-85.39 0-160.292 44.91-202.372 112.4l-.585 1.007C75.405 442.44 46.545 542.715 46.545 649.73c0 .61 0 1.22.003 1.83v-.094 258.42H224.49v23.568c0 18.048 7.29 34.394 19.086 46.252l-.003-.003c11.728 11.788 27.963 19.084 45.902 19.084H734.808c17.94 0 34.173-7.295 45.9-19.08l.002-.004c11.794-11.856 19.084-28.2 19.084-46.25v-.31.015-23.274h177.663V651.56c.002-.536.003-1.17.003-1.804 0-107.025-28.86-207.31-79.224-293.495l1.49 2.76c-42.648-68.468-117.52-113.36-202.877-113.36-1.168 0-2.334.008-3.497.025l.176-.002zM310.928 21.333H713.08v224.35H310.927zm355.607 46.545H357.472v131.258h309.062zm-442.182 865.28h-46.545V444.43h46.545zm621.847 0h-46.546V444.43H846.2zm-334.71-324.42L408.16 519.37l-103.796 89.367-118.505-102.4 30.44-35.188 88.157 76.147 103.796-89.367 103.33 89.367 103.75-89.367 103.797 89.367 88.436-76.288 30.348 35.28-118.97 102.4-103.61-89.32zm0 221.974L408.16 741.81l-103.796 88.902-118.458-101.888 30.348-35.28 88.204 75.868 103.796-88.902 103.33 88.902 103.75-88.855 103.797 88.902 88.437-75.917 30.3 35.328-118.736 101.796-103.795-88.902z"/></svg>