<svg fill="currentColor" viewBox="0 0 1024.005 1052.92" xmlns="http://www.w3.org/2000/svg"><path d="M334.494 191.362h350.342c1.384-.023 3.016-.037 4.652-.037 105.584 0 198.142 55.772 249.82 139.463l.727 1.263.534.936c52.456 89.433 83.435 196.96 83.435 311.72 0 .65 0 1.3-.003 1.947v-.1 313.744H845.915c-18.454 49.996-65.684 85.005-121.095 85.037H299.188c-55.415-.03-102.645-35.04-120.81-84.144l-.29-.892H.003V646.42C0 645.9 0 645.286 0 644.672 0 529.922 30.98 422.41 85.03 330.04l-1.593 2.948.534-.935c52.41-84.933 144.956-140.69 250.525-140.69zm351.098 89.043H338.055c-.845-.013-1.843-.02-2.843-.02-73.568 0-138.11 38.647-174.43 96.747l-.503.864C115.49 454.534 89.04 546.524 89.04 644.69c0 .56 0 1.12.003 1.68v-.086 224.968H259.34l-.222 44.967v.076c0 11.11 4.49 21.168 11.755 28.463v-.002c7.21 7.26 17.2 11.754 28.24 11.754H724.592c22.13 0 40.07-17.94 40.07-40.07l-.223-44.744h170.518v-225.28c.002-.498.003-1.088.003-1.68 0-98.182-26.446-190.188-72.606-269.282l1.37 2.54c-36.83-58.94-101.356-97.567-174.906-97.567-1.01 0-2.017.006-3.022.02h.152zM297.407 21.333h429.19V280.45h-429.19zm340.146 89.043H386.45v81.03h251.103zm-378.434 805.4h-89.044v-467.48h89.043zm594.81 0h-89.044v-467.48h89.043zM511.51 634.885l-98.838-85.48-99.283 85.48L185.48 524.43l58.234-67.362 69.766 60.37 99.283-85.48 98.838 85.48 99.24-85.614 99.283 85.482 70.255-60.46 57.878 67.494-128.134 110.503-99.283-85.482zm0 212.236l-98.838-85.037-99.283 85.037-127.82-109.97 57.877-67.494 69.855 60.104 99.283-85.037 98.838 85.037 99.417-85.126 99.283 85.037 70.3-60.238 57.878 67.63-128.177 110.012-99.283-85.037z"/></svg>